<svg xmlns="http://www.w3.org/2000/svg" width="27" height="22" viewBox="0 0 27 22">
    <g fill="none" fill-rule="nonzero">
        <path fill="#F9F9F9" d="M0 5.735h26.745v10.196H0z"/>
        <path fill="#09599E" d="M1.114 0h24.517c.613 0 1.114.574 1.114 1.275v4.46H0v-4.46C0 .574.501 0 1.114 0z"/>
        <path fill="#E59703" d="M0 15.931h26.745v4.461c0 .701-.501 1.275-1.114 1.275H1.114C.501 21.667 0 21.093 0 20.392v-4.46z"/>
        <path fill="#FFF" d="M1.114 21.635C.501 21.635 0 21.06 0 20.36V1.275C0 .574.501 0 1.114 0h24.517c.613 0 1.114.574 1.114 1.275" opacity=".05"/>
        <path fill="#00589F" d="M10.336 13.51l.808-5.385h1.281l-.808 5.385zM16.27 8.284a3.142 3.142 0 0 0-1.142-.223c-1.282 0-2.173.733-2.173 1.785 0 .764.64 1.21 1.114 1.465.502.255.669.446.669.67 0 .35-.39.541-.78.541-.502 0-.78-.096-1.198-.287l-.167-.127-.168 1.21c.307.16.864.287 1.421.287 1.338 0 2.229-.732 2.229-1.848 0-.605-.334-1.083-1.086-1.465-.446-.255-.725-.415-.725-.67 0-.222.223-.477.725-.477.417 0 .724.095.947.19l.111.065.223-1.116M19.557 8.157h-1.002c-.307 0-.53.095-.67.446l-1.894 4.939h1.338s.223-.67.278-.797h1.644c.028.191.167.797.167.797h1.198l-1.059-5.385zm-1.588 3.441c.112-.319.502-1.498.502-1.498s.111-.318.167-.51l.084.479.306 1.56H17.97v-.031zM9.25 8.157L7.995 11.82l-.14-.733c-.222-.86-.975-1.784-1.783-2.262l1.17 4.684H8.61l2.033-5.385H9.25"/>
        <path fill="#F9A51A" d="M6.826 8.125H4.764l-.028.127c1.616.447 2.675 1.53 3.12 2.804l-.445-2.453c-.056-.35-.307-.446-.585-.478"/>
    </g>
</svg>
